<svg width="32" height="32" viewBox="0 0 32 32" fill="none" xmlns="http://www.w3.org/2000/svg">
<path d="M14.28 2.3469L2.38037 7.31906C1.72087 7.60814 1.72087 8.53319 2.38037 8.82227L14.3374 13.621C15.3983 14.0257 16.5452 14.0257 17.6062 13.621L29.5918 8.82227C30.2513 8.53319 30.28 7.60814 29.5918 7.31906L17.6922 2.3469C16.6026 1.88437 15.3696 1.88437 14.28 2.3469Z" fill="#FCB400"/>
<path d="M17.0605 16.2224V28.1903C17.0605 28.7684 17.634 29.1731 18.1502 28.9419L31.5122 23.7384C31.8276 23.6228 31.9996 23.3337 31.9996 22.9868V11.0189C31.9996 10.4408 31.4261 10.0361 30.91 10.2673L17.548 15.4708C17.2326 15.5864 17.0605 15.8755 17.0605 16.2224Z" fill="#18BFFF"/>
<path d="M0 11.0483V22.2935C0 22.9005 0.688172 23.2763 1.2043 23.0162L9.54839 18.969L9.94982 18.7667L0.258065 10.499C0.114695 10.6436 0 10.817 0 11.0483Z" fill="#F82B60"/>
<path d="M13.8782 15.3843L1.17573 10.2965C0.917664 10.2098 0.6596 10.2387 0.458883 10.3543C0.401535 10.3832 0.315514 10.4411 0.229492 10.4989L9.94992 18.7665L13.9069 16.8586C14.5664 16.5406 14.5091 15.6156 13.8782 15.3843Z" fill="#BA1E45"/>
</svg>
