<svg width="32" height="32" viewBox="0 0 32 32" fill="none" xmlns="http://www.w3.org/2000/svg">
<path d="M18.5441 0H6.18199C4.98076 0 4 0.988359 4 2.18959V29.818C4 31.0192 4.98076 32 6.18199 32H25.0824C26.2837 32 27.2644 31.0192 27.2644 29.818V8.72796L22.1706 5.09385L18.5441 0Z" fill="#0F9D58"/>
<path d="M9.82324 15.6309V26.1835H21.4555V15.6309H9.82324ZM14.9095 24.7238H11.2754V22.9067H14.9095V24.7238ZM14.9095 21.8119H11.2754V19.9948H14.9095V21.8119ZM14.9095 18.9076H11.2754V17.0906H14.9095V18.9076ZM20.0033 24.7238H16.3692V22.9067H20.0033V24.7238ZM20.0033 21.8119H16.3692V19.9948H20.0033V21.8119ZM20.0033 18.9076H16.3692V17.0906H20.0033V18.9076Z" fill="#F1F1F1"/>
<path d="M19.1826 8.08984L27.2643 16.1792V8.72847L19.1826 8.08984Z" fill="url(#paint0_linear_1589_932)" fill-opacity="0.16"/>
<path d="M18.5459 0.00292969V6.5489C18.5459 7.75774 19.5191 8.73089 20.7279 8.73089H27.2739L18.5459 0.00292969Z" fill="#87CEAC"/>
<defs>
<linearGradient id="paint0_linear_1589_932" x1="23.2251" y1="8.78629" x2="23.2251" y2="16.1785" gradientUnits="userSpaceOnUse">
<stop stop-color="#263238"/>
<stop offset="1" stop-color="#263238"/>
</linearGradient>
</defs>
</svg>
