<svg width="32" height="32" viewBox="0 0 32 32" fill="none" xmlns="http://www.w3.org/2000/svg">
<path d="M20.0924 15.1387L7.44141 12.9062V29.4022C7.44141 30.1553 8.05202 30.7665 8.80575 30.7665H30.6353C31.3884 30.7665 31.9997 30.1559 31.9997 29.4022V23.3248L20.0924 15.1387Z" fill="#185C37"/>
<path d="M20.0924 1H8.80575C8.05264 1 7.44141 1.61061 7.44141 2.36435V8.44174L20.0924 15.8835L26.7898 18.1159L31.9991 15.8835V8.44174L20.0924 1Z" fill="#21A366"/>
<path d="M7.44141 8.44141H20.0924V15.8831H7.44141V8.44141Z" fill="#107C41"/>
<path opacity="0.1" d="M16.4956 6.9541H7.44141V25.5581H16.4956C17.2481 25.5556 17.8575 24.9463 17.86 24.1938V8.31783C17.8575 7.56534 17.2481 6.9566 16.4956 6.9541Z" fill="black"/>
<path opacity="0.2" d="M15.7519 7.69727H7.44141V26.3019H15.7519C16.5044 26.2994 17.1137 25.6901 17.1162 24.9376V9.06162C17.1131 8.30913 16.5037 7.69977 15.7519 7.69727Z" fill="black"/>
<path opacity="0.2" d="M15.7519 7.69727H7.44141V24.8132H15.7519C16.5044 24.8107 17.1137 24.2013 17.1162 23.4488V9.06162C17.1131 8.30913 16.5037 7.69977 15.7519 7.69727Z" fill="black"/>
<path opacity="0.2" d="M15.0075 7.69727H7.44141V24.8132H15.0075C15.76 24.8107 16.3694 24.2013 16.3719 23.4488V9.06162C16.3687 8.30913 15.76 7.69977 15.0075 7.69727Z" fill="black"/>
<path d="M1.36435 7.69727H15.0078C15.7609 7.69727 16.3722 8.30788 16.3722 9.06162V22.7051C16.3722 23.4582 15.7616 24.0695 15.0078 24.0695H1.36435C0.610613 24.0695 0 23.4588 0 22.7051V9.06162C0 8.30788 0.610613 7.69727 1.36435 7.69727Z" fill="url(#paint0_linear_1589_933)"/>
<path d="M4.22461 20.3172L7.09393 15.871L4.4646 11.4492H6.57956L8.01454 14.2773C8.14703 14.546 8.23766 14.7454 8.28703 14.8773H8.30578C8.40015 14.6629 8.49953 14.4548 8.60327 14.2529L10.137 11.4511H12.0788L9.38263 15.8466L12.147 20.3178H10.0807L8.42328 17.2141C8.34515 17.0822 8.27891 16.9435 8.22516 16.7997H8.20078C8.15203 16.9404 8.08766 17.0754 8.00891 17.2016L6.30269 20.3184L4.22461 20.3172Z" fill="white"/>
<path d="M30.6351 1H20.0928V8.44174H31.9994V2.36435C31.9994 1.61061 31.3888 1 30.6351 1Z" fill="#33C481"/>
<path d="M20.0928 15.8838H31.9994V23.3255H20.0928V15.8838Z" fill="#107C41"/>
<defs>
<linearGradient id="paint0_linear_1589_933" x1="2.8441" y1="6.63161" x2="13.5277" y2="25.1351" gradientUnits="userSpaceOnUse">
<stop stop-color="#18884F"/>
<stop offset="0.5" stop-color="#117E43"/>
<stop offset="1" stop-color="#0B6631"/>
</linearGradient>
</defs>
</svg>
