<svg width="32" height="32" viewBox="0 0 32 32" fill="none" xmlns="http://www.w3.org/2000/svg">
<path d="M2.93064 1.38047L20.6755 0.0727471C22.8547 -0.113917 23.4147 0.0119478 24.7843 1.00607L30.4493 4.98789C31.3847 5.67268 31.6962 5.85935 31.6962 6.60494V28.4426C31.6962 29.8111 31.197 30.6207 29.4541 30.7444L8.84738 31.9892C7.53752 32.051 6.91566 31.8644 6.22981 30.9929L2.05919 25.5807C1.30933 24.5845 1 23.8389 1 22.9674V3.55644C1 2.43752 1.49919 1.5042 2.93064 1.38047Z" fill="white"/>
<path fill-rule="evenodd" clip-rule="evenodd" d="M20.6766 0.0727471L2.92851 1.38047C1.49919 1.5042 1 2.43752 1 3.55644V22.9674C1 23.8389 1.3104 24.5845 2.05812 25.5807L6.22981 30.9929C6.91566 31.8644 7.53752 32.051 8.84631 31.9892L29.4551 30.7444C31.1981 30.6207 31.6972 29.8111 31.6972 28.4426V6.60494C31.6972 5.89775 31.4167 5.69402 30.5911 5.09029L30.4503 4.98789L24.7864 1.00607C23.4157 0.0119478 22.8557 -0.113917 20.6755 0.0727471H20.6766ZM9.31244 6.24761C7.63032 6.36067 7.24739 6.38627 6.29274 5.61082L3.86397 3.68231C3.61544 3.43271 3.74023 3.12125 4.36209 3.05938L21.4232 1.81566C22.8547 1.69086 23.6024 2.18899 24.1624 2.62418L27.0893 4.73936C27.2141 4.80229 27.5245 5.17455 27.1512 5.17455L9.53003 6.23268L9.31244 6.24761ZM7.35086 28.2559V9.71744C7.35086 8.90784 7.60046 8.53452 8.34711 8.47158L28.5826 7.28973C29.2685 7.22786 29.5799 7.66306 29.5799 8.47158V26.8863C29.5799 27.6959 29.4551 28.3807 28.3341 28.4426L8.97004 29.5625C7.85005 29.6244 7.35086 29.2521 7.35086 28.2559ZM26.4674 10.7116C26.5912 11.2716 26.4674 11.8315 25.9053 11.8955L24.9731 12.0801V25.7674C24.1624 26.2026 23.4157 26.4511 22.7928 26.4511C21.7966 26.4511 21.547 26.1396 20.8003 25.2074L14.698 15.6267V24.8959L16.6286 25.3322C16.6286 25.3322 16.6286 26.4522 15.0713 26.4522L10.7759 26.7007C10.6511 26.4511 10.7759 25.8292 11.2111 25.7055L12.3321 25.3951V13.1393L10.7759 13.0134C10.6511 12.4534 10.9615 11.6449 11.834 11.583L16.442 11.2716L22.7928 20.9781V12.3915L21.1736 12.2059C21.0499 11.5201 21.547 11.023 22.1699 10.9612L26.4674 10.7116Z" fill="black"/>
</svg>
