<svg width="32" height="32" viewBox="0 0 32 32" fill="none" xmlns="http://www.w3.org/2000/svg">
<path d="M28.923 14.7687C30.6222 14.7687 31.9997 13.3913 31.9997 11.6921C31.9997 9.99286 30.6221 8.61538 28.9229 8.61538C27.2236 8.61538 25.8459 9.99298 25.8459 11.6923V14.7687H28.923ZM20.3074 14.7687C22.0067 14.7687 23.3843 13.3911 23.3843 11.6918V3.07692C23.3843 1.37759 22.0067 0 20.3074 0C18.6081 0 17.2305 1.37759 17.2305 3.07692V11.6918C17.2305 13.3911 18.6081 14.7687 20.3074 14.7687Z" fill="#2EB67D"/>
<path d="M3.07666 17.2314C1.37746 17.2314 0 18.6089 0 20.3081C0 22.0073 1.3776 23.3848 3.07679 23.3848C4.77612 23.3848 6.15385 22.0072 6.15385 20.3079V17.2314H3.07666ZM11.6923 17.2314C9.99298 17.2314 8.61538 18.609 8.61538 20.3084V28.9233C8.61538 30.6226 9.99298 32.0002 11.6923 32.0002C13.3916 32.0002 14.7692 30.6226 14.7692 28.9233V20.3084C14.7692 18.609 13.3916 17.2314 11.6923 17.2314Z" fill="#E01E5A"/>
<path d="M17.2314 28.923C17.2314 30.6222 18.6089 31.9997 20.3081 31.9997C22.0073 31.9997 23.3848 30.6221 23.3848 28.9229C23.3848 27.2236 22.0072 25.8459 20.3079 25.8459H17.2314V28.923ZM17.2314 20.3074C17.2314 22.0067 18.609 23.3843 20.3084 23.3843H28.9233C30.6226 23.3843 32.0002 22.0067 32.0002 20.3074C32.0002 18.6081 30.6226 17.2305 28.9233 17.2305H20.3084C18.609 17.2305 17.2314 18.6081 17.2314 20.3074Z" fill="#ECB22E"/>
<path d="M14.7687 3.07666C14.7687 1.37746 13.3913 0 11.6921 0C9.99286 0 8.61538 1.3776 8.61538 3.07679C8.61538 4.77614 9.99298 6.15385 11.6923 6.15385H14.7687V3.07666ZM14.7687 11.6923C14.7687 9.99298 13.3911 8.61538 11.6918 8.61538H3.07692C1.37759 8.61538 0 9.99298 0 11.6923C0 13.3916 1.37759 14.7692 3.07692 14.7692H11.6918C13.3911 14.7692 14.7687 13.3916 14.7687 11.6923Z" fill="#36C5F0"/>
</svg>
